<svg xmlns="http://www.w3.org/2000/svg" width="681" height="376" viewBox="0 0 681 376" version="1.1">
<!-- <svg viewBox="0 0 564 242" version="1.1" xmlns="http://www.w3.org/2000/svg" width="564" height="242"> -->
<!-- </svg> -->
  <g stroke-width="2" stroke="none" fill="none" fill-rule="evenodd">
    <!-- <path d="M284.896413 1.77679122c.882345.50911399 1.614955 1.2417713 2.124036 2.124173l21.099094 36.57152808-23.135682 15.8357502c4.105694 3.2404436 6.948421 5.8686448 8.528184 7.8846038 1.579762 2.0159589 3.442094 5.5716267 5.586996 10.6670034l18.980455-17.1235485 38.506082 66.7434478c1.599912 2.773164.648949 6.318327-2.124036 7.918342-.880865.50826-1.879934.775822-2.896898.775822h-1.922491c-20.321792-10.300399-43.304909-16.104436-67.642638-16.104436-24.337728 0-47.320846 5.804037-67.642638 16.104436h-1.92249c-3.201432 0-5.796706-2.595441-5.796706-5.79708 0-1.01703.267545-2.016163.775772-2.897084L276.978581 3.90096422c1.599913-2.77316415 5.144847-3.7241888 7.917832-2.124173zm-22.79159 66.41506168c-11.912588 9.3077337-11.944524 23.5356033-27.180843 31.0058222 21.073897 5.2094339 33.551253 4.4950599 46.817544-5.8703705 13.266291-10.3654307 12.78672-21.586947 8.366252-27.2452528-4.420468-5.6583057-16.090365-7.1979325-28.002953 2.1098011z" stroke="#00CCAE" fill="#00CCAE" class="svg-elem-1"></path>
    <path d="M20.7357156 241c-3.6819127 0-7.2356044-.568639-10.66118144-1.705935C6.64895709 238.15677 3.95747261 236.68295 2 234.872561l2.58664731-5.431139c1.86425963 1.671128 4.25280646 3.028899 7.16571213 4.073354 2.91290566 1.044455 5.90732776 1.566675 8.98335616 1.566675 4.0547647 0 7.0841412-.684688 9.0882203-2.054085 2.0040791-1.369396 3.0061036-3.191363 3.0061036-5.465954 0-1.671128-.547618-3.028899-1.6428706-4.073354-1.0952525-1.044455-2.4468205-1.845192-4.0547444-2.402235-1.6079239-.557043-3.8799563-1.183706-6.8161652-1.88001-3.6819128-.881984-6.653032-1.763955-8.91344679-2.645939-2.26041481-.881985-4.19455516-2.239756-5.8024791-4.073355-1.60792393-1.833599-2.41187384-4.305438-2.41187384-7.415594 0-2.599532.68743543-4.943718 2.06232691-7.032629 1.37489148-2.08891 3.46050066-3.760013 6.25689011-5.013359 2.79638941-1.253346 6.26852091-1.880009 10.41649861-1.880009 2.8896024 0 5.7325557.371356 8.5289452 1.114079 2.7963894.742724 5.1965877 1.810373 7.2006668 3.20298l-2.3070098 5.570399c-2.0506855-1.299766-4.2411578-2.286181-6.5714823-2.959275-2.3303245-.673093-4.6140083-1.009634-6.8511199-1.009634-3.9615517 0-6.9326709.719502-8.9134468 2.158529-1.98077586 1.439027-2.97114893 3.295808-2.97114893 5.570399 0 1.671129.5592695 3.0289 1.67782528 4.073355 1.11855575 1.044455 2.50507805 1.856797 4.15960855 2.437049 1.6545304.580253 3.9032598 1.195312 6.7462558 1.845195 3.6819127.881984 6.6413805 1.763956 8.8784921 2.64594 2.2371115.88198 4.1596004 2.22815 5.7675244 4.038539 1.6079239 1.810389 2.4118738 4.247414 2.4118738 7.311149 0 2.553112-.6990869 4.885694-2.0972816 6.997814-1.3981947 2.11212-3.5187582 3.783223-6.3617542 5.013359C28.3791277 240.384941 24.8836933 241 20.7357156 241z" stroke="#1D1B1D" fill="#1D1B1D" class="svg-elem-2"></path>
    <path stroke="#1D1B1D" fill="#1D1B1D" d="M102.289855 191.724638L80.8535704 240.42029h-6.9126781l-21.5061097-48.695652h7.5411034l17.5959079 40 17.735558-40z" class="svg-elem-3"></path>
    <path d="M152.031506 215.793944h6.654064v19.008987c-2.402868 1.99607-5.198472 3.527914-8.386893 4.595579C147.110255 240.46617 143.783256 241 140.31758 241c-4.898155 0-9.311049-1.079254-13.238815-3.237795-3.927766-2.15854-7.012171-5.12939-9.253308-8.912638-2.241137-3.783249-3.361689-8.04224-3.361689-12.777103 0-4.734863 1.120552-9.00546 3.361689-12.811918 2.241137-3.806459 5.337094-6.777309 9.287965-8.912639 3.95087-2.13533 8.398421-3.202979 13.342785-3.202979 3.881557 0 7.404941.638268 10.570258 1.914824 3.165317 1.276556 5.856952 3.144942 8.074984 5.605214l-4.297416 4.31706c-3.881557-3.760038-8.571701-5.640029-14.070574-5.640029-3.69672 0-7.012167.800736-9.946439 2.402234-2.934273 1.601498-5.233136 3.829635-6.896661 6.684479-1.663524 2.854844-2.495274 6.069396-2.495274 9.643754 0 3.527937.83175 6.719279 2.495274 9.574123 1.663525 2.854844 3.962388 5.094586 6.896661 6.719294 2.934272 1.624708 6.226614 2.43705 9.877126 2.43705 4.343647 0 8.132729-1.044439 11.36736-3.13335v-15.875637z" stroke="#1D1B1D" fill="#1D1B1D" class="svg-elem-4"></path>
    <path d="M233.231687 191.724638l22.101646 48.695652h-7.297713l-5.351657-12.173913h-25.854756l-5.351657 12.173913h-7.158709l22.032144-48.695652h6.880702zm-3.475102 7.095652l-10.494807 23.860869h20.989614l-10.494807-23.860869z" stroke="#1D1B1D" fill="#1D1B1D" class="svg-elem-5"></path>
    <path d="M292.229824 191.724638c6.285416 0 11.230485 1.507231 14.835356 4.521739 3.60487 3.014508 5.407279 7.165191 5.407279 12.452174 0 3.75654-.924312 6.956508-2.772964 9.6-1.848652 2.643491-4.482941 4.56811-7.902946 5.773913l11.507799 16.347826h-7.556326l-10.467938-14.956522c-1.294056.092754-2.310799.139131-3.05026.139131h-11.993067v14.817391h-6.932409v-48.695652h18.925476zm-.207972 6.052174h-11.785095v21.913043h11.785095c4.390548 0 7.741179-.950715 10.051993-2.852174 2.310815-1.901459 3.466205-4.614475 3.466205-8.13913 0-3.524656-1.15539-6.226078-3.466205-8.104348-2.310814-1.87827-5.661445-2.817391-10.051993-2.817391z" stroke="#1D1B1D" fill="#1D1B1D" class="svg-elem-6"></path>
    <path stroke="#1D1B1D" fill="#1D1B1D" d="M343.217992 197.776812h-16.580311v-6.052174h40v6.052174H350.05737v42.643478h-6.839378z" class="svg-elem-7"></path>
    <path stroke="#1D1B1D" fill="#1D1B1D" d="M384.608696 191.724638h6.956521v48.695652h-6.956521z" class="svg-elem-8"></path>
    <path d="M431.170498 241c-3.681913 0-7.235604-.568639-10.661181-1.705935-3.425577-1.137295-6.117062-2.611115-8.074534-4.421504l2.586647-5.431139c1.86426 1.671128 4.252806 3.028899 7.165712 4.073354 2.912906 1.044455 5.907328 1.566675 8.983356 1.566675 4.054765 0 7.084141-.684688 9.088221-2.054085 2.004079-1.369396 3.006103-3.191363 3.006103-5.465954 0-1.671128-.547618-3.028899-1.64287-4.073354-1.095253-1.044455-2.446821-1.845192-4.054745-2.402235-1.607924-.557043-3.879956-1.183706-6.816165-1.88001-3.681913-.881984-6.653032-1.763955-8.913447-2.645939-2.260415-.881985-4.194555-2.239756-5.802479-4.073355-1.607924-1.833599-2.411874-4.305438-2.411874-7.415594 0-2.599532.687436-4.943718 2.062327-7.032629 1.374892-2.08891 3.460501-3.760013 6.25689-5.013359 2.79639-1.253346 6.268521-1.880009 10.416499-1.880009 2.889602 0 5.732556.371356 8.528945 1.114079 2.796389.742724 5.196588 1.810373 7.200667 3.20298l-2.30701 5.570399c-2.050686-1.299766-4.241158-2.286181-6.571482-2.959275-2.330325-.673093-4.614009-1.009634-6.85112-1.009634-3.961552 0-6.932671.719502-8.913447 2.158529-1.980776 1.439027-2.971149 3.295808-2.971149 5.570399 0 1.671129.55927 3.0289 1.677825 4.073355 1.118556 1.044455 2.505078 1.856797 4.159609 2.437049 1.65453.580253 3.90326 1.195312 6.746256 1.845195 3.681912.881984 6.64138 1.763956 8.878492 2.64594 2.237111.88198 4.1596 2.22815 5.767524 4.038539 1.607924 1.810389 2.411874 4.247414 2.411874 7.311149 0 2.553112-.699087 4.885694-2.097282 6.997814-1.398194 2.11212-3.518758 3.783223-6.361754 5.013359C438.81391 240.384941 435.318476 241 431.170498 241z" stroke="#1D1B1D" fill="#1D1B1D" class="svg-elem-9"></path>
    <path stroke="#1D1B1D" fill="#1D1B1D" d="M479.449876 197.776812h-16.580311v-6.052174h40v6.052174h-16.580311v42.643478h-6.839378z" class="svg-elem-10"></path>
    <path d="M539.898353 191.724638L562 240.42029h-7.297714l-5.351656-12.173913h-25.854757l-5.351656 12.173913h-7.15871l22.032145-48.695652h6.880701zm-3.475101 7.095652l-10.494808 23.860869h20.989615l-10.494807-23.860869z" stroke="#1D1B1D" fill="#1D1B1D" class="svg-elem-11"></path> -->
    
  <path d="M 247.849 67.025 C 246.940 67.555, 242.908 72.564, 238.888 78.156 C 234.867 83.748, 229.086 91.359, 226.039 95.069 C 222.993 98.780, 218.250 104.755, 215.500 108.347 C 210.433 114.967, 208.888 115.952, 203.500 115.999 C 201.850 116.014, 197.647 116.920, 194.161 118.013 C 178.795 122.829, 167.223 119.256, 157.464 106.681 C 140.344 84.624, 131.096 80.256, 113.497 85.918 C 94.247 92.111, 88.062 101.697, 87.311 126.500 C 86.699 146.684, 86.789 146.553, 68.827 153.405 C 48.848 161.027, 40.274 176.583, 48.380 190.500 C 49.341 192.150, 49.777 192.600, 49.349 191.500 C 42.906 174.945, 50.610 161.623, 70.722 154.540 C 86.641 148.933, 87.993 147.077, 88.015 130.800 C 88.050 103.603, 95.576 92.320, 117.563 86.501 C 131.653 82.771, 139.373 87.339, 157.273 109.997 C 166.197 121.293, 178.016 124.263, 195.276 119.545 C 211.623 115.076, 211.902 115.526, 200.830 128.500 C 195.666 134.550, 186.763 145.125, 181.044 152 C 175.325 158.875, 170.257 164.946, 169.781 165.492 C 169.226 166.128, 168.579 165.949, 167.974 164.992 C 167.422 164.120, 167.024 163.989, 167.015 164.677 C 166.991 166.535, 172.019 170, 174.738 170 C 179.708 170, 210.375 134.390, 226.409 110 C 250.548 73.281, 256.062 62.230, 247.849 67.025 M 276.810 98.750 C 271.663 103.563, 262.754 111.550, 257.013 116.500 C 251.272 121.450, 243.408 128.426, 239.537 132.002 C 235.667 135.579, 226.875 143.454, 220 149.502 C 187.419 178.167, 182.251 185.059, 190.511 188.823 C 191.871 189.443, 192.890 189.623, 192.776 189.225 C 192.662 188.826, 196.154 185.141, 200.535 181.036 C 204.916 176.931, 216.049 166.131, 225.276 157.036 C 243.501 139.072, 243.955 138.860, 243.985 148.282 C 244.003 154.132, 242.392 158.166, 237.472 164.583 C 226.551 178.830, 227.330 186.435, 241.109 200.048 C 258.327 217.058, 259.092 243.082, 242.845 259.102 C 239.033 262.861, 238.914 263.098, 241.875 261.037 C 260.269 248.226, 260.636 217.654, 242.618 199.120 C 227.996 184.079, 227.493 179.417, 238.887 164.552 C 244.746 156.907, 246.447 151.734, 245.526 144.360 L 244.870 139.109 256.185 127.769 C 273.939 109.976, 290.157 92.064, 289.490 90.985 C 288.186 88.874, 285.830 90.316, 276.810 98.750 M 121.400 112.400 C 114.326 119.474, 118.959 130, 129.147 130 C 133.717 130, 139 124.370, 139 119.500 C 139 114.264, 133.736 109, 128.500 109 C 125.625 109, 124.041 109.759, 121.400 112.400 M 482.807 128.750 C 480.443 131.502, 480 133.702, 481.147 136.993 C 484.225 145.821, 499.330 142.624, 497.575 133.516 C 496.758 129.276, 493.604 127, 488.544 127 C 485.751 127, 483.799 127.596, 482.807 128.750 M 282.103 130.391 C 280.440 132.161, 279.964 133.653, 280.268 136.141 L 280.680 139.500 280.840 135.950 C 281.044 131.417, 282.512 130, 287 130 C 292.686 130, 293 130.858, 293 146.396 L 293 160.392 296.250 157.316 C 307.258 146.897, 327.180 152.316, 330.882 166.737 C 332.777 174.116, 332.928 174.447, 332.438 170.145 C 330.449 152.659, 309.467 143.757, 297.264 155.222 L 295 157.349 295 144.674 C 295 128.421, 289.586 122.425, 282.103 130.391 M 462 128.642 C 452.408 130.444, 445.854 136.568, 444.010 145.453 C 442.929 150.660, 442.842 150.758, 438.834 151.295 C 429.884 152.496, 430.752 163, 439.802 163 L 442.694 163 443.343 174.250 C 443.699 180.438, 444 188.875, 444.011 193 C 444.036 202.372, 445.839 205, 452.246 205 C 458.343 205, 459 202.760, 459 181.961 L 459 163 463.453 163 C 471.237 163, 475.063 159.926, 473.482 154.943 C 472.665 152.370, 469.174 151, 463.435 151 C 454.463 151, 458.450 141.421, 468.053 139.903 C 473.777 138.998, 476 137.187, 476 133.431 C 476 129.407, 469.592 127.215, 462 128.642 M 505.495 130.005 C 502.471 133.347, 503.915 200.693, 507.065 203.250 C 509.891 205.543, 514.193 205.474, 517.139 203.088 L 519.500 201.176 519.305 166.342 C 519.112 131.940, 519.083 131.486, 516.944 129.754 C 513.949 127.328, 507.796 127.463, 505.495 130.005 M 156.551 150.250 C 156.283 151.488, 155.937 156.928, 155.782 162.339 C 155.525 171.298, 155.289 172.350, 153.139 174.089 C 151.455 175.452, 151.219 176, 152.317 176 C 156.262 176, 158 171.237, 158 160.424 C 158 148.450, 159.144 146.673, 162.168 153.949 C 163.333 156.753, 164.478 158.855, 164.713 158.621 C 164.947 158.386, 164.152 155.901, 162.946 153.097 C 160.551 147.530, 157.440 146.145, 156.551 150.250 M 335.842 152.177 C 334.500 153.455, 334.134 153.938, 335.030 153.250 C 341.119 148.574, 343.236 150.809, 352.544 171.750 C 359.257 186.851, 360.249 188.400, 361.357 185.512 C 361.671 184.694, 361.496 184.131, 360.968 184.262 C 360.440 184.393, 356.839 177.525, 352.966 169 C 349.093 160.475, 345.379 152.967, 344.712 152.316 C 342.142 149.805, 338.394 149.747, 335.842 152.177 M 376.735 151.250 C 375.246 152.380, 368.910 165.259, 369.064 166.843 C 369.099 167.204, 370.786 164.125, 372.814 160 C 376.864 151.759, 380.063 149.937, 384.088 153.580 C 386.641 155.890, 386.500 158.067, 383.393 164.283 C 381.958 167.152, 381.236 169.050, 381.787 168.500 C 385.018 165.277, 388.238 156.818, 387.147 154.423 C 385.409 150.608, 379.823 148.906, 376.735 151.250 M 402.182 151.457 C 394.859 154.775, 387.018 163.847, 387.019 169 C 387.019 169.825, 388.076 168.232, 389.367 165.459 C 397.998 146.924, 425.868 147.203, 432.461 165.890 C 434.320 171.158, 434.463 178.102, 432.750 179.947 C 431.745 181.029, 431.757 181.147, 432.812 180.550 C 439.340 176.847, 433.316 158.356, 423.849 153.035 C 418.501 150.030, 407.156 149.203, 402.182 151.457 M 483.557 152.223 C 480.861 156.071, 481.279 199.849, 484.039 202.811 C 486.995 205.985, 492.250 205.769, 494.928 202.365 C 498.324 198.047, 497.648 154.750, 494.139 151.911 C 490.846 149.245, 485.532 149.402, 483.557 152.223 M 528.861 151.922 L 526.500 153.844 526.815 177.172 C 527.169 203.333, 527.626 205, 534.452 205 C 541.471 205, 542 203.693, 542 186.344 C 542 166.528, 543.935 161.957, 552.297 162.015 C 557.882 162.054, 558.901 165.177, 559.667 184.605 C 560.405 203.316, 561.036 205, 567.309 205 C 574.137 205, 574.443 204.184, 575 184.495 L 575.500 166.822 578.306 164.411 C 588.026 156.058, 591.838 161.786, 592.234 185.341 C 592.533 203.141, 593.318 205, 600.538 205 C 607.940 205, 609.216 198.253, 607.118 170.222 C 605.713 151.439, 590.968 143.589, 576.391 153.864 L 571.750 157.135 569.125 154.631 C 563.522 149.287, 553.461 148.331, 546.242 152.459 L 541.984 154.893 539.537 152.447 C 536.562 149.471, 532.138 149.254, 528.861 151.922 M 135.655 153.829 C 133.265 156.470, 133.617 159.703, 136.500 161.592 C 141.503 164.870, 146.699 157.842, 142.429 153.571 C 140.341 151.484, 137.686 151.584, 135.655 153.829 M 402.589 165.077 C 401.165 166.769, 400 168.757, 400 169.495 C 400 170.233, 399.727 171.548, 399.393 172.418 C 398.860 173.807, 400.264 174, 410.893 174 L 423 174 422.884 171.250 C 422.813 169.558, 422.592 169.173, 422.311 170.250 C 421.912 171.776, 420.516 172, 411.427 172 C 399.592 172, 398.543 171.073, 403.589 165.077 C 405.013 163.385, 405.953 162, 405.678 162 C 405.403 162, 404.013 163.385, 402.589 165.077 M 297.560 164.934 C 285.651 178.094, 301.399 205.155, 313.714 192.693 C 315.435 190.952, 315.391 190.943, 312.500 192.437 C 299.205 199.309, 288.158 179.099, 297.961 165.839 C 300.367 162.585, 300.143 162.080, 297.560 164.934 M 85.881 166.503 C 78.806 170.348, 78.978 181.869, 86.165 185.585 C 91.943 188.573, 98.634 186.397, 101.365 180.643 C 106.019 170.835, 95.532 161.259, 85.881 166.503 M 319.300 178 C 319.300 181.025, 319.487 182.262, 319.716 180.750 C 319.945 179.238, 319.945 176.762, 319.716 175.250 C 319.487 173.738, 319.300 174.975, 319.300 178 M 128.454 176.074 C 127.615 177.432, 130.902 180.987, 138.258 186.675 C 147.931 194.157, 148.375 196.807, 142.551 212.273 C 137.838 224.787, 139.386 226.578, 149.559 220.381 C 162.613 212.428, 164.005 212.553, 171.989 222.394 C 179.660 231.848, 184.193 232.321, 183.825 223.628 L 183.651 219.500 183.268 223.750 C 182.722 229.806, 180.131 229.446, 175.084 222.614 C 166.744 211.324, 162.576 210.431, 151.217 217.500 C 140.527 224.153, 140.249 223.851, 145.089 210.818 C 150.889 195.197, 150.230 193.233, 135.143 181.194 C 129.936 177.038, 129.952 176.209, 135.250 175.732 C 139.361 175.362, 139.330 175.344, 134.309 175.175 C 131.454 175.079, 128.819 175.483, 128.454 176.074 M 332.787 180 C 332.394 183.025, 331.837 186.625, 331.547 188 C 331.258 189.375, 331.704 188.475, 332.538 186 C 333.373 183.525, 333.931 179.925, 333.778 178 C 333.545 175.067, 333.384 175.392, 332.787 180 M 372.989 186.251 C 370.048 192.438, 364.871 203.261, 361.484 210.301 C 358.097 217.342, 355.884 222.517, 356.566 221.801 C 358.233 220.053, 379.337 176.004, 378.777 175.443 C 378.534 175.201, 375.930 180.064, 372.989 186.251 M 144.762 176.707 C 146.006 176.946, 147.806 176.937, 148.762 176.687 C 149.718 176.437, 148.700 176.241, 146.500 176.252 C 144.300 176.263, 143.518 176.468, 144.762 176.707 M 399.621 183.750 C 402.258 194.747, 412.048 197.938, 425.155 192.073 C 431.729 189.132, 435.183 191.274, 433.502 197.250 C 433.006 199.011, 433.097 199.174, 433.919 198 C 435.455 195.807, 435.229 191.435, 433.506 190.005 C 431.804 188.593, 429.935 188.902, 421.517 191.988 C 411.454 195.677, 402.921 192.427, 401.401 184.325 C 401.058 182.496, 400.369 181, 399.870 181 C 399.370 181, 399.259 182.238, 399.621 183.750 M 280.310 194.500 C 280.315 197.800, 280.502 199.029, 280.725 197.232 C 280.947 195.435, 280.943 192.735, 280.715 191.232 C 280.486 189.729, 280.304 191.200, 280.310 194.500 M 330 191.856 C 330 192.510, 328.087 195.128, 325.750 197.675 C 323.284 200.361, 322.458 201.716, 323.781 200.902 C 326.550 199.200, 331.551 192.218, 330.649 191.315 C 330.292 190.959, 330 191.202, 330 191.856 M 203.750 194.989 C 210.189 198.915, 207.079 201.490, 194.828 202.375 C 183.301 203.209, 181.915 204.357, 182.168 212.861 L 182.336 218.500 182.918 212.524 C 183.633 205.178, 185.308 204.043, 195.500 204 C 203.370 203.967, 207.355 202.458, 207.804 199.340 C 208.108 197.238, 203.964 192.996, 201.615 193.004 C 201.002 193.006, 201.963 193.899, 203.750 194.989 M 51.196 195.812 C 52.065 197.084, 54.739 199.525, 57.138 201.237 C 62.045 204.738, 61.644 204.220, 54.558 197.904 C 51.840 195.482, 50.327 194.541, 51.196 195.812 M 293 198.741 C 293 200.313, 292.438 202.231, 291.750 203.002 C 290.698 204.181, 290.760 204.208, 292.139 203.171 C 294.006 201.768, 295.168 197.222, 293.866 196.417 C 293.390 196.123, 293 197.169, 293 198.741 M 119.200 205.200 C 116.287 208.113, 118.719 214, 122.835 214 C 126.297 214, 128 212.351, 128 209 C 128 205.695, 126.305 204, 123 204 C 121.570 204, 119.860 204.540, 119.200 205.200 M 347.068 211.855 C 345.819 214.522, 345.015 217.559, 345.282 218.602 C 345.688 220.189, 345.787 220.125, 345.884 218.210 C 345.948 216.951, 346.931 214.095, 348.070 211.863 C 349.208 209.632, 349.959 207.626, 349.739 207.406 C 349.519 207.186, 348.317 209.188, 347.068 211.855 M 67.945 210.684 C 69.394 213.685, 69.266 218.976, 67.500 229 C 66.677 233.675, 66.039 238.625, 66.083 240 C 66.212 244.017, 69.925 221.960, 69.964 216.941 C 69.985 214.267, 69.357 211.580, 68.445 210.441 C 66.943 208.566, 66.926 208.574, 67.945 210.684 M 205.200 219.200 C 202.372 222.028, 204.951 228, 209 228 C 213.049 228, 215.628 222.028, 212.800 219.200 C 212.140 218.540, 210.430 218, 209 218 C 207.570 218, 205.860 218.540, 205.200 219.200 M 286.372 234.473 C 286.032 235.360, 286.034 236.367, 286.376 236.710 C 286.719 237.053, 287 236.583, 287 235.667 C 287 234.750, 287.675 234, 288.500 234 C 290.743 234, 290.314 237.685, 288 238.290 C 285.948 238.826, 284.851 251.168, 286.750 252.348 C 287.163 252.604, 287.500 249.858, 287.500 246.245 C 287.500 241.881, 287.920 239.535, 288.750 239.255 C 289.673 238.944, 290 240.704, 290 245.976 C 290 250.483, 290.369 252.890, 291 252.500 C 291.550 252.160, 292 250.982, 292 249.882 C 292 248.682, 292.440 248.154, 293.100 248.562 C 293.838 249.018, 293.810 248.513, 293.015 247.028 C 292.363 245.810, 292.107 243.710, 292.446 242.361 C 292.784 241.012, 292.727 239.367, 292.318 238.705 C 291.909 238.044, 291.558 236.602, 291.537 235.501 C 291.490 232.964, 287.273 232.125, 286.372 234.473 M 477.667 233.667 C 476.290 235.044, 477.064 236.192, 478.542 234.965 C 479.638 234.055, 480.395 233.995, 481.155 234.755 C 482.544 236.144, 481.215 238.296, 479.399 237.600 C 478.457 237.238, 478.005 237.788, 478.015 239.281 C 478.028 241.061, 478.217 241.205, 478.974 240.008 C 480.792 237.132, 482.206 240.484, 481.844 246.815 C 481.550 251.969, 481.744 252.823, 483.181 252.713 C 484.105 252.643, 484.613 252.183, 484.310 251.693 C 484.007 251.202, 483.617 248.483, 483.444 245.650 C 483.211 241.830, 483.375 241.016, 484.080 242.500 C 484.880 244.183, 484.948 244.073, 484.512 241.811 C 484.007 239.197, 485.994 236.481, 486.750 238.750 C 486.966 239.398, 488.438 239.646, 490.309 239.349 C 495.270 238.562, 497.992 241.713, 498.032 248.289 C 498.061 253.095, 498.178 253.349, 499.536 251.554 C 500.414 250.393, 500.642 249.242, 500.103 248.703 C 499.577 248.177, 499.560 246.536, 500.061 244.787 C 502.808 235.210, 514.488 238.374, 513.647 248.467 C 513.323 252.359, 513.533 253, 515.135 253 C 517.362 253, 517.549 251.700, 515.559 250.049 C 514.767 249.392, 514.366 248.211, 514.667 247.425 C 517.405 240.289, 506.043 234.317, 501.271 240.383 L 499.396 242.766 497.414 240.540 C 495.430 238.313, 486.082 236.213, 483.967 237.520 C 483.435 237.849, 483 236.966, 483 235.559 C 483 233.053, 479.516 231.817, 477.667 233.667 M 295.250 235.674 C 294.012 236.538, 293 237.672, 293 238.195 C 293 238.717, 294.186 238.212, 295.635 237.073 C 298.894 234.509, 303.056 234.415, 306.048 236.838 C 308.849 239.106, 307.890 241, 303.941 241 C 302.323 241, 301 241.342, 301 241.760 C 301 242.177, 302.462 242.515, 304.250 242.510 L 307.500 242.500 307.500 247.752 C 307.500 253.242, 307.646 253.511, 309.857 252.110 C 310.818 251.501, 310.886 251.048, 310.090 250.556 C 309.473 250.174, 309.216 249.460, 309.519 248.969 C 314.797 240.429, 303.510 229.913, 295.250 235.674 M 310.079 235.750 C 310.126 236.795, 310.361 236.997, 310.662 236.250 C 310.991 235.436, 313.362 235, 317.467 235 C 324.554 235, 324.960 235.472, 324.986 243.750 L 325 248 320.083 248 C 317.086 248, 314.970 247.512, 314.662 246.750 C 314.361 246.003, 314.126 246.205, 314.079 247.250 C 314.014 248.694, 314.875 249, 319 249 C 323.333 249, 324 249.267, 324 251 C 324 252.100, 324.563 253.001, 325.250 253.002 C 326.175 253.004, 326.414 250.890, 326.170 244.882 C 325.745 234.420, 326.724 233.348, 332.001 238.501 L 336 242.406 339.999 238.501 C 345.266 233.358, 346.256 234.426, 345.830 244.788 C 345.648 249.203, 345.837 252.606, 346.250 252.349 C 347.144 251.792, 347.263 237.849, 346.393 235.582 C 345.449 233.123, 342.903 233.702, 339.298 237.196 L 336 240.392 332.702 237.196 C 328.655 233.274, 309.913 232.076, 310.079 235.750 M 355.667 234.667 C 354.746 235.587, 354.823 251.771, 355.750 252.349 C 356.163 252.606, 356.352 249.203, 356.170 244.788 C 355.711 233.617, 356.753 232.999, 363.636 240.359 C 366.650 243.581, 369.401 245.933, 369.749 245.584 C 370.098 245.236, 367.950 242.487, 364.976 239.475 C 359.954 234.390, 357.309 233.024, 355.667 234.667 M 369.627 235.529 C 369.282 236.428, 369.029 237.689, 369.063 238.332 C 369.098 238.974, 369.534 238.488, 370.031 237.250 C 371.917 232.559, 373 235.043, 373 244.059 C 373 254.346, 374.519 255.377, 375.599 245.824 C 376.731 235.821, 391.176 229.456, 390.361 239.318 C 390.285 240.243, 390.622 241, 391.111 241 C 394.224 241, 391.661 245.619, 387.897 246.794 C 383.385 248.202, 381.536 247.443, 379.952 243.535 C 379.147 241.549, 379.125 241.552, 379.063 243.679 C 378.938 247.981, 384.836 250.764, 387.800 247.800 C 389.781 245.819, 391.711 248.428, 389.908 250.650 C 388.905 251.885, 388.872 252.160, 389.794 251.606 C 390.505 251.178, 391.630 251.279, 392.294 251.831 C 393.220 252.602, 393.500 250.841, 393.500 244.254 C 393.500 238.280, 393.880 235.546, 394.750 235.253 C 395.662 234.947, 396 236.537, 396 241.138 L 396 247.442 402.473 241.027 C 409.800 233.765, 409.870 233.768, 410.906 241.406 C 411.927 248.931, 412.726 249.363, 412.201 242.107 C 411.917 238.170, 412.178 236.008, 413.001 235.499 C 414.816 234.378, 415.967 236.906, 415.985 242.050 C 416.020 252.654, 423.954 251.927, 424.989 241.225 C 425.682 234.064, 427.430 234.139, 427.803 241.345 C 428.018 245.504, 427.623 247.956, 426.432 249.845 L 424.759 252.500 427.129 250.223 C 430.813 246.683, 430.713 234.500, 427 234.500 C 424.672 234.500, 424.466 234.907, 424 240.398 C 423.108 250.914, 417.352 250.730, 416.797 240.167 L 416.500 234.500 411.887 234.201 C 407.471 233.914, 407.080 234.117, 402.734 238.951 C 397.141 245.171, 397 245.173, 397 239 C 397 233.748, 394.320 231.819, 392.225 235.563 C 391.431 236.981, 391.229 236.981, 390.052 235.563 C 387.559 232.559, 378.813 234.070, 376.552 237.896 C 375.752 239.250, 375.511 239.110, 375.011 237 C 374.313 234.059, 370.583 233.039, 369.627 235.529 M 444.336 235.567 C 444.005 236.429, 444.202 237.602, 444.774 238.174 C 445.493 238.893, 445.765 238.641, 445.657 237.357 C 445.517 235.699, 446.303 235.500, 453 235.500 C 459.511 235.500, 460.482 235.729, 460.363 237.239 C 460.288 238.196, 460.625 238.732, 461.113 238.430 C 461.601 238.129, 462 237.009, 462 235.941 C 462 233.292, 445.344 232.939, 444.336 235.567 M 539.180 236.250 C 539.453 238.172, 540.196 238.545, 544.275 238.806 C 549.271 239.126, 549.973 241, 545.096 241 C 540.542 241, 534.982 250.100, 538.263 252.184 C 540.634 253.690, 554.008 253.143, 554.633 251.514 C 555.137 250.200, 555.448 250.200, 557.324 251.514 C 559.769 253.227, 564.287 253.452, 567.005 251.997 C 568.257 251.327, 569.084 251.327, 569.498 251.997 C 570.736 254, 598.457 253.257, 600.345 251.171 C 604.214 246.896, 601.364 241, 595.429 241 C 590.506 241, 591.190 239.174, 596.250 238.807 C 605.079 238.169, 602.755 234, 593.570 234 C 587.355 234, 586 234.281, 586 235.571 C 586 237, 585.857 237, 584.429 235.571 C 582.362 233.505, 571.463 233.351, 570.685 235.378 C 569.853 237.548, 572.064 239, 576.200 239 C 578.290 239, 580 239.450, 580 240 C 580 240.550, 578.845 241, 577.434 241 C 576.023 241, 573.998 241.466, 572.934 242.035 C 571.310 242.904, 571 242.737, 571 240.990 C 571 235.399, 560.604 231.538, 556.528 235.615 C 555.041 237.102, 554.771 237.102, 553.127 235.615 C 550.041 232.823, 538.767 233.336, 539.180 236.250 M 516 237.987 C 516 238.609, 516.450 238.840, 517 238.500 C 517.550 238.160, 518.562 238.229, 519.249 238.654 C 519.937 239.079, 521.706 239.300, 523.181 239.145 C 527.457 238.696, 530 242.021, 530 248.059 C 530 251.177, 530.384 252.881, 531 252.500 C 532.980 251.276, 532.135 243.260, 529.750 240.640 C 527.255 237.899, 516 235.728, 516 237.987 M 228.200 239.200 C 227.540 239.860, 227 241.570, 227 243 C 227 244.430, 227.540 246.140, 228.200 246.800 C 228.860 247.460, 230.570 248, 232 248 C 233.430 248, 235.140 247.460, 235.800 246.800 C 236.460 246.140, 237 244.430, 237 243 C 237 241.570, 236.460 239.860, 235.800 239.200 C 235.140 238.540, 233.430 238, 232 238 C 230.570 238, 228.860 238.540, 228.200 239.200 M 406.485 241.015 L 403.617 244.009 406.686 247.255 C 408.373 249.040, 409.982 251.175, 410.261 252 C 410.676 253.231, 410.901 253.174, 411.516 251.684 C 412.059 250.368, 411.376 248.951, 409.033 246.534 L 405.801 243.199 407.984 241.016 C 409.184 239.816, 409.984 238.651, 409.760 238.427 C 409.537 238.204, 408.063 239.368, 406.485 241.015 M 463.455 240.455 C 462.105 241.805, 461.001 243.942, 461.002 245.205 C 461.003 247.144, 461.274 246.959, 462.752 244.011 C 466.346 236.837, 475.285 238.294, 475.664 246.115 C 475.754 247.977, 475.866 250.213, 475.914 251.083 C 475.961 251.954, 476.602 252.667, 477.337 252.667 C 479.739 252.667, 478.141 242.898, 475.306 240.250 C 471.982 237.145, 466.672 237.237, 463.455 240.455 M 296.408 241.500 C 294.891 243.816, 294.891 244.184, 296.408 246.500 C 298.340 249.449, 303.405 249.992, 304.416 247.359 C 304.947 245.974, 304.803 245.919, 303.493 247.006 C 299.718 250.139, 294.706 243.694, 298.200 240.200 C 298.860 239.540, 299.095 239, 298.723 239 C 298.351 239, 297.309 240.125, 296.408 241.500 M 314.079 240.193 C 314.019 241.484, 315.006 241.958, 318.250 242.193 C 321.683 242.441, 322.470 242.857, 322.343 244.357 C 322.235 245.641, 322.507 245.893, 323.226 245.174 C 325.291 243.109, 323.214 241, 319.115 241 C 316.892 241, 314.946 240.454, 314.662 239.750 C 314.352 238.981, 314.128 239.151, 314.079 240.193 M 454 246.059 C 454 250.510, 454.369 252.890, 455 252.500 C 455.550 252.160, 456 248.984, 456 245.441 C 456 241.814, 455.563 239, 455 239 C 454.428 239, 454 242.020, 454 246.059 M 561 239.883 C 561 240.369, 561.900 241.002, 563 241.290 C 565.362 241.907, 565.714 240.488, 563.418 239.607 C 561.319 238.801, 561 238.838, 561 239.883 M 100.284 240.701 C 92.382 242.231, 90.709 254.730, 97.907 258.452 C 106.794 263.047, 115.685 253.753, 110.920 244.850 C 110.041 243.208, 103.849 239.621, 102.782 240.136 C 102.627 240.211, 101.503 240.465, 100.284 240.701 M 358.844 246.896 C 358.632 250.670, 358.882 252.878, 359.500 252.674 C 360.831 252.234, 361.386 242.986, 360.155 241.755 C 359.533 241.133, 359.066 242.966, 358.844 246.896 M 329 247.559 C 329 251.010, 329.379 252.884, 330 252.500 C 330.550 252.160, 331 249.659, 331 246.941 C 331 244.223, 330.550 242, 330 242 C 329.450 242, 329 244.502, 329 247.559 M 339.872 243.692 C 339.073 244.677, 338.997 245.086, 339.688 244.671 C 340.501 244.184, 341.001 245.151, 341.270 247.729 C 341.633 251.210, 341.677 251.134, 341.832 246.750 C 342.018 241.491, 341.859 241.243, 339.872 243.692 M 466 244.500 C 463.481 247.536, 468.952 250.648, 471.800 247.800 C 472.460 247.140, 472.986 246.127, 472.968 245.550 C 472.951 244.972, 472.297 245.344, 471.516 246.375 C 469.675 248.806, 466.562 247.783, 467.293 244.988 C 467.915 242.608, 467.653 242.509, 466 244.500 M 488.035 244.934 C 486.318 248.143, 486.664 253.523, 488.490 252.008 C 489.437 251.222, 489.761 249.896, 489.379 248.373 C 489.046 247.048, 489.329 245.308, 490.011 244.487 C 490.825 243.506, 490.875 243, 490.158 243 C 489.560 243, 488.605 243.870, 488.035 244.934 M 504.250 243.686 C 501.953 244.569, 502.855 247.926, 505.573 248.608 C 508.527 249.349, 510.343 248.008, 509.844 245.455 C 509.500 243.697, 506.605 242.782, 504.250 243.686 M 520.537 244.250 C 519.367 247.906, 519.482 253, 520.735 253 C 521.618 253, 521.937 252.070, 521.678 250.250 C 521.464 248.738, 521.662 246.488, 522.119 245.250 C 522.634 243.856, 522.567 243, 521.944 243 C 521.390 243, 520.757 243.563, 520.537 244.250 M 525.847 248.048 C 526.037 250.772, 526.499 253, 526.873 253 C 527.702 253, 527.054 244.781, 526.148 243.798 C 525.791 243.412, 525.656 245.325, 525.847 248.048 M 584.052 244.437 C 583.339 245.297, 581.487 246, 579.937 246 C 578.386 246, 576.840 246.450, 576.500 247 C 576.104 247.641, 579.490 248, 585.941 248 C 591.980 248, 596 247.600, 596 247 C 596 246.450, 593.997 246, 591.550 246 C 588.554 246, 586.814 245.489, 586.225 244.437 C 585.431 243.019, 585.229 243.019, 584.052 244.437 M 550.500 245.347 C 544.740 247.125, 544.530 247.436, 548.854 247.779 C 553.602 248.156, 554.350 247.857, 553.838 245.789 C 553.580 244.745, 552.788 244.640, 550.500 245.347 M 494 248.441 C 494 250.334, 494.346 252.096, 494.768 252.357 C 495.191 252.618, 495.369 251.070, 495.163 248.916 C 494.702 244.080, 494 243.794, 494 248.441 M 398.437 250.250 L 395.500 253.500 398.750 250.563 L 402 247.626 405.250 250.563 L 408.500 253.500 405.563 250.250 C 403.948 248.463, 402.344 247, 402 247 C 401.656 247, 400.052 248.463, 398.437 250.250 M 162.077 253.589 C 157.883 257.118, 157.823 261.977, 161.923 266.077 C 168.826 272.980, 179.386 265.647, 175.598 256.580 C 173.068 250.526, 167.248 249.238, 162.077 253.589 M 429.336 254.567 C 429.005 255.429, 429.202 256.602, 429.774 257.174 C 430.493 257.893, 430.765 257.641, 430.657 256.357 C 430.519 254.722, 431.278 254.500, 437 254.500 C 442.561 254.500, 443.480 254.751, 443.363 256.239 C 443.288 257.196, 443.625 257.732, 444.113 257.430 C 444.601 257.129, 445 256.009, 445 254.941 C 445 252.304, 430.339 251.954, 429.336 254.567 M 75 270.500 C 76.866 272.425, 78.617 274, 78.892 274 C 79.167 274, 77.866 272.425, 76 270.500 C 74.134 268.575, 72.383 267, 72.108 267 C 71.833 267, 73.134 268.575, 75 270.500 M 200.770 269.510 C 198.738 270.891, 193.876 276.502, 189.966 281.980 C 186.055 287.457, 181.650 292.902, 180.178 294.079 C 177.673 296.081, 177.661 296.124, 180 294.755 C 182.627 293.217, 187.831 287.094, 194.445 277.761 C 196.614 274.699, 200.192 271.026, 202.395 269.597 C 204.598 268.169, 205.965 267, 205.432 267 C 204.900 267, 202.802 268.130, 200.770 269.510 M 124.264 274.718 C 125.784 274.947, 128.034 274.941, 129.264 274.704 C 130.494 274.467, 129.250 274.279, 126.500 274.286 C 123.750 274.294, 122.744 274.488, 124.264 274.718 M 108.500 277 C 105.805 277.686, 105.754 277.765, 108 277.782 C 109.375 277.792, 111.625 277.440, 113 277 C 116.361 275.924, 112.730 275.924, 108.500 277 M 93.250 278.728 C 95.313 278.944, 98.688 278.944, 100.750 278.728 C 102.813 278.513, 101.125 278.336, 97 278.336 C 92.875 278.336, 91.188 278.513, 93.250 278.728 M 142 283.500 C 144.987 286.525, 147.657 289, 147.932 289 C 148.207 289, 145.987 286.525, 143 283.500 C 140.013 280.475, 137.343 278, 137.068 278 C 136.793 278, 139.013 280.475, 142 283.500 M 172.500 297 C 169.732 297.704, 169.694 297.771, 172 297.866 C 173.375 297.923, 175.175 297.533, 176 297 C 177.702 295.900, 176.822 295.900, 172.500 297" stroke="#afcc7c" fill="#afcc7c" fill-rule="evenodd"/>
    <path d="M 117.109 86.533 C 95.460 92.549, 88.050 103.823, 88.015 130.800 C 87.993 147.077, 86.641 148.933, 70.722 154.540 C 42.595 164.446, 38.542 187.281, 61.957 203.916 C 70.757 210.168, 71.325 212.961, 67.895 233.125 C 61.889 268.432, 77.523 283.038, 113.785 275.997 C 130.611 272.730, 134.102 273.766, 144.500 285.105 C 162.227 304.437, 174.973 302.819, 192.325 279.036 C 201.020 267.116, 204.330 265.518, 220.474 265.446 C 254.922 265.291, 267.333 225.957, 241.109 200.048 C 227.330 186.435, 226.551 178.830, 237.472 164.583 C 242.392 158.166, 244.003 154.132, 243.985 148.282 C 243.954 138.854, 243.547 139.050, 224.787 157.533 C 215.279 166.900, 204 177.823, 199.722 181.806 L 191.944 189.047 196.555 191.024 C 199.091 192.111, 201.518 193, 201.948 193 C 203.670 193, 208 197.257, 208 198.950 C 208 202.193, 205.088 203.369, 195.500 204 C 182.664 204.845, 182.573 204.947, 183.390 217.591 C 184.369 232.727, 181.391 233.981, 171.989 222.394 C 164.005 212.553, 162.613 212.428, 149.559 220.381 C 139.386 226.578, 137.838 224.787, 142.551 212.273 C 148.375 196.807, 147.931 194.157, 138.258 186.675 C 124.730 176.213, 124.966 174.570, 139.857 175.535 C 154.662 176.495, 155.394 175.888, 155.782 162.339 C 156.249 146.030, 158.666 142.955, 162.926 153.250 C 167.486 164.272, 168.350 166.049, 169.023 165.778 C 169.404 165.625, 174.600 159.650, 180.569 152.500 C 186.538 145.350, 195.651 134.550, 200.820 128.500 C 211.903 115.527, 211.624 115.076, 195.276 119.545 C 178.013 124.263, 166.185 121.291, 157.283 109.997 C 139.567 87.523, 131.179 82.623, 117.109 86.533 M 121.400 112.400 C 114.326 119.474, 118.959 130, 129.147 130 C 133.717 130, 139 124.370, 139 119.500 C 139 114.264, 133.736 109, 128.500 109 C 125.625 109, 124.041 109.759, 121.400 112.400 M 281.875 131.650 C 280.458 133.358, 279.840 177.838, 280.996 194.992 C 281.722 205.779, 291.827 209.439, 292.811 199.271 L 293.123 196.056 296.542 199.476 C 313.892 216.825, 338.718 193.690, 331.138 167.237 C 326.833 152.217, 307.458 146.708, 296.250 157.316 L 293 160.392 293 146.396 C 293 136.844, 292.619 132.019, 291.800 131.200 C 290.015 129.415, 283.484 129.712, 281.875 131.650 M 135.655 153.829 C 133.265 156.470, 133.617 159.703, 136.500 161.592 C 141.503 164.870, 146.699 157.842, 142.429 153.571 C 140.341 151.484, 137.686 151.584, 135.655 153.829 M 334.655 153.829 C 332.322 156.406, 332.532 157.711, 336.623 166.085 C 338.616 170.163, 343.145 179.557, 346.688 186.961 L 353.128 200.422 349.556 208.461 C 345.367 217.889, 345.154 220.399, 348.365 222.504 C 352.668 225.323, 355.565 223.131, 359.926 213.759 C 362.040 209.217, 366.352 200.100, 369.508 193.500 C 387.834 155.174, 387.339 156.521, 384.171 153.655 C 378.649 148.658, 376.860 150.595, 367.456 171.750 C 363.727 180.137, 360.372 187, 360 187 C 359.628 187, 356.273 180.137, 352.544 171.750 C 343.176 150.675, 340.204 147.697, 334.655 153.829 M 401.422 153.418 C 382.661 161.588, 381.329 191.698, 399.292 201.598 C 412.090 208.652, 436.540 202.577, 433.529 193.092 C 432.582 190.107, 430.199 189.817, 425.155 192.073 C 412.048 197.938, 402.258 194.747, 399.621 183.750 L 398.962 181 415.281 181 C 433.578 181, 434 180.852, 434 174.426 C 434 157.947, 416.676 146.776, 401.422 153.418 M 302.035 162.295 C 292.595 165.577, 289.898 182.553, 297.499 190.847 C 304.340 198.312, 316.351 194.814, 319.126 184.548 C 323.013 170.167, 313.820 158.198, 302.035 162.295 M 404.130 163.544 C 402.467 164.943, 400.858 166.968, 400.553 168.044 C 400.249 169.120, 399.745 170.900, 399.433 172 C 398.888 173.921, 399.343 174, 410.933 174 C 424.457 174, 424.644 173.869, 421.585 166.548 C 418.989 160.335, 409.819 158.757, 404.130 163.544 M 85.881 166.503 C 78.806 170.348, 78.978 181.869, 86.165 185.585 C 91.943 188.573, 98.634 186.397, 101.365 180.643 C 106.019 170.835, 95.532 161.259, 85.881 166.503 M 119.200 205.200 C 116.287 208.113, 118.719 214, 122.835 214 C 126.297 214, 128 212.351, 128 209 C 128 205.695, 126.305 204, 123 204 C 121.570 204, 119.860 204.540, 119.200 205.200 M 205.200 219.200 C 202.372 222.028, 204.951 228, 209 228 C 213.049 228, 215.628 222.028, 212.800 219.200 C 212.140 218.540, 210.430 218, 209 218 C 207.570 218, 205.860 218.540, 205.200 219.200 M 287 236 C 287 237.111, 287.667 238, 288.500 238 C 289.333 238, 290 237.111, 290 236 C 290 234.889, 289.333 234, 288.500 234 C 287.667 234, 287 234.889, 287 236 M 478.446 235.087 C 477.416 236.755, 479.733 238.667, 481.113 237.287 C 482.267 236.133, 481.545 234, 480 234 C 479.515 234, 478.816 234.489, 478.446 235.087 M 295.712 237.012 C 288.290 242.850, 293.283 253.351, 303.165 252.689 L 307.500 252.399 307.500 247.449 C 307.500 242.648, 307.413 242.500, 304.583 242.500 C 301.175 242.500, 299.849 244.886, 302.825 245.665 C 305.806 246.444, 304.343 249, 300.916 249 C 296.598 249, 294.156 244.937, 296.408 241.500 C 298.193 238.776, 302.681 238.081, 304.800 240.200 C 305.733 241.133, 306.278 241.118, 307.250 240.129 C 310.925 236.392, 300.187 233.492, 295.712 237.012 M 310.644 236.750 C 309.957 239.206, 309.912 249.146, 310.580 251.250 C 311.471 254.059, 324 253.825, 324 251 C 324 249.267, 323.333 249, 319 249 C 312.431 249, 311.791 246.275, 318.250 245.807 C 321.224 245.592, 322.500 245.050, 322.500 244 C 322.500 242.950, 321.224 242.408, 318.250 242.193 C 311.791 241.725, 312.431 239, 319 239 C 323.333 239, 324 238.733, 324 237 C 324 234.173, 311.432 233.937, 310.644 236.750 M 326.422 236.344 C 325.393 239.024, 326.470 252.330, 327.750 252.753 C 328.650 253.051, 329 251.604, 329 247.583 C 329 241.569, 329.675 240.878, 332.500 244 C 334.832 246.576, 337.207 246.537, 339.595 243.883 C 341.498 241.768, 341.500 241.771, 342 247.133 C 342.840 256.154, 345.428 254.423, 345.795 244.595 C 346.174 234.443, 345.202 233.421, 339.999 238.501 L 336 242.406 332.208 238.703 C 328.074 234.666, 327.202 234.311, 326.422 236.344 M 356.422 236.344 C 355.513 238.712, 356.447 252.512, 357.500 252.269 C 358.050 252.142, 358.725 249.535, 359 246.477 L 359.500 240.915 365.469 246.958 C 373.074 254.657, 373 254.686, 373 243.917 C 373 233.733, 370.757 231.261, 370.198 240.829 C 369.825 247.198, 369.953 247.204, 363.826 240.500 C 358.619 234.803, 357.298 234.061, 356.422 236.344 M 380.500 236.155 C 372.514 240.523, 375.717 253, 384.823 253 C 387.806 253, 391.770 249.417, 390.368 247.989 C 389.513 247.118, 388.754 247.137, 387.269 248.064 C 382.934 250.772, 377.950 246.883, 379.499 242.002 C 380.301 239.476, 384.672 238.314, 387.269 239.936 C 390.520 241.966, 392.132 239.375, 389.139 236.929 C 386.508 234.779, 383.507 234.510, 380.500 236.155 M 393.667 235.667 C 392.539 236.795, 392.912 251.828, 394.086 252.553 C 394.684 252.923, 396.709 251.736, 398.586 249.916 L 402 246.608 405.298 249.804 C 410.834 255.170, 412.212 252.878, 406.804 247.298 L 403.608 244 406.804 240.702 C 409.795 237.616, 410.930 235, 409.277 235 C 408.879 235, 405.729 237.800, 402.277 241.221 L 396 247.442 396 241.221 C 396 235.477, 395.366 233.968, 393.667 235.667 M 412.345 236.542 C 410.930 240.231, 412.696 248.342, 415.427 250.691 C 421.884 256.245, 428.268 251.630, 427.798 241.748 C 427.438 234.193, 425.701 233.869, 424.989 241.225 C 423.977 251.686, 416 252.713, 416 242.382 C 416 235.875, 413.893 232.509, 412.345 236.542 M 445.526 235.958 C 444.514 237.595, 445.894 239, 448.513 239 C 450.771 239, 450.926 239.382, 451.204 245.670 C 451.628 255.238, 454 255.642, 454 246.147 L 454 239.127 457.250 238.813 C 459.333 238.613, 460.500 237.961, 460.500 237 C 460.500 235.183, 446.602 234.216, 445.526 235.958 M 228.200 239.200 C 227.540 239.860, 227 241.570, 227 243 C 227 244.430, 227.540 246.140, 228.200 246.800 C 228.860 247.460, 230.570 248, 232 248 C 233.430 248, 235.140 247.460, 235.800 246.800 C 236.460 246.140, 237 244.430, 237 243 C 237 241.570, 236.460 239.860, 235.800 239.200 C 235.140 238.540, 233.430 238, 232 238 C 230.570 238, 228.860 238.540, 228.200 239.200 M 484.749 238.750 C 483.765 240.747, 484.596 252.352, 485.750 252.743 C 486.575 253.023, 487 252.096, 487 250.018 C 487 241.176, 494.321 240.198, 495.168 248.927 C 495.720 254.616, 498 253.968, 498 248.122 C 498 241.691, 495.238 238.567, 490.250 239.359 C 488.462 239.642, 487 239.453, 487 238.937 C 487 237.821, 485.277 237.678, 484.749 238.750 M 516.912 238.250 C 516.397 239.707, 516.115 249.037, 516.531 250.821 C 517.390 254.494, 519.452 252.771, 520 247.922 C 520.468 243.786, 520.694 243.500, 523.500 243.500 C 526.306 243.500, 526.532 243.786, 527 247.922 C 527.730 254.383, 530 254.505, 530 248.083 C 530 241.770, 527.413 238.566, 522.857 239.234 C 521.237 239.472, 519.680 239.292, 519.397 238.833 C 518.928 238.075, 517.123 237.651, 516.912 238.250 M 287.412 240.369 C 286.442 242.897, 287.461 252.330, 288.750 252.755 C 289.671 253.058, 290 251.303, 290 246.083 C 290 239.533, 288.773 236.823, 287.412 240.369 M 464.455 241.455 C 459.409 246.500, 463.237 252.876, 471.239 252.755 L 475.746 252.687 475.854 247.901 C 476.030 240.054, 469.531 236.378, 464.455 241.455 M 478.623 240.540 C 477.682 242.994, 477.905 250.302, 478.974 251.992 C 480.730 254.770, 482.123 251.563, 481.804 245.475 C 481.508 239.806, 479.876 237.275, 478.623 240.540 M 502.189 241.039 C 496.883 245.982, 501.040 253.217, 508.890 252.704 L 513.405 252.410 513.690 248.147 C 514.193 240.642, 507.232 236.340, 502.189 241.039 M 100.284 240.701 C 92.382 242.231, 90.709 254.730, 97.907 258.452 C 106.794 263.047, 115.685 253.753, 110.920 244.850 C 110.041 243.208, 103.849 239.621, 102.782 240.136 C 102.627 240.211, 101.503 240.465, 100.284 240.701 M 466 244.500 C 464.472 246.342, 466.244 249, 469 249 C 471.756 249, 473.528 246.342, 472 244.500 C 471.315 243.675, 469.965 243, 469 243 C 468.035 243, 466.685 243.675, 466 244.500 M 504.250 243.644 C 501.964 244.600, 502.850 247.924, 505.573 248.608 C 508.563 249.358, 510.338 248.004, 509.834 245.356 C 509.482 243.513, 506.644 242.642, 504.250 243.644 M 162.077 253.589 C 157.883 257.118, 157.823 261.977, 161.923 266.077 C 168.826 272.980, 179.386 265.647, 175.598 256.580 C 173.068 250.526, 167.248 249.238, 162.077 253.589 M 430.474 255.042 C 429.176 257.142, 431.676 258.110, 437.604 257.804 C 442.043 257.575, 443.500 257.129, 443.500 256 C 443.500 254.116, 431.588 253.240, 430.474 255.042" stroke="#064635" fill="#064635" fill-rule="evenodd" class = "svg-elem-12"></path>
  </g>
</svg>
